{
	"asset":{
		"version":"2.0",
		"generator":"Created using the official Cinema 4D glTF Exporter 1.000x284978"
	},
	"scenes":[{
		"nodes":[0]
	}],
	"nodes":[{
		"name":"Сфера",
		"mesh":0
	}],
	"meshes":[{
		"name":"Сфера",
		"primitives":[{
			"attributes":{
				"POSITION":1,
				"NORMAL":2,
				"TEXCOORD_0":3
			},
			"indices":0,
			"material":0
		}]
	}],
	"accessors":[{
		"bufferView":0,
		"type":"SCALAR",
		"componentType":5123,
		"count":15120,
		"byteOffset":0,
		"min":[0],
		"max":[2698]
	},
	{
		"bufferView":1,
		"type":"VEC3",
		"componentType":5126,
		"count":2699,
		"byteOffset":0,
		"min":[-100.0,
		-100.0,
		-100.0],
		"max":[100.0,
		100.0,
		100.0]
	},
	{
		"bufferView":1,
		"type":"VEC3",
		"componentType":5126,
		"count":2699,
		"byteOffset":12,
		"min":[-1.0,
		-1.0,
		-1.0],
		"max":[1.0,
		1.0,
		1.0]
	},
	{
		"bufferView":1,
		"type":"VEC2",
		"componentType":5126,
		"count":2699,
		"byteOffset":24,
		"min":[0.0,
		0.0],
		"max":[1.0,
		1.0]
	}],
	"bufferViews":[{
		"buffer":0,
		"byteOffset":0,
		"byteLength":30240,
		"target":34963
	},
	{
		"buffer":0,
		"byteOffset":30240,
		"byteLength":86368,
		"target":34962,
		"byteStride":32
	}],
	"buffers":[{
		"uri":"data:application/octet-stream;base64,",
		"byteLength":116608
	}],
	"materials":[{
		"pbrMetallicRoughness":{
			"baseColorFactor":[0.08627450980392154,
			0.1843137254901957,
			0.8,
			1.0],
			"metallicFactor":0.0,
			"roughnessFactor":0.5
		},
		"emissiveFactor":[0.0,
		0.0,
		0.0],
		"alphaMode":"OPAQUE",
		"doubleSided":true,
		"name":"Материал"
	}]
}